<?xml version="1.0" standalone="no"?>
<!DOCTYPE svg PUBLIC "-//W3C//DTD SVG 20010904//EN"
 "http://www.w3.org/TR/2001/REC-SVG-20010904/DTD/svg10.dtd">
<svg version="1.0" xmlns="http://www.w3.org/2000/svg"
 width="980.000000pt" height="980.000000pt" viewBox="0 0 980.000000 980.000000"
 preserveAspectRatio="xMidYMid meet">
<metadata>
Created by potrace 1.14, written by Peter Selinger 2001-2017
</metadata>
<g transform="translate(0.000000,980.000000) scale(0.100000,-0.100000)"
fill="#000000" stroke="none">
<path d="M2135 9790 c-216 -9 -289 -26 -450 -104 -317 -155 -565 -453 -652
-783 -25 -97 -25 -106 -35 -633 -13 -792 -4 -7152 11 -7255 23 -153 100 -340
204 -495 71 -105 226 -262 323 -326 105 -70 253 -139 329 -153 191 -35 269
-36 3090 -36 2180 0 2790 3 2862 13 396 54 756 361 927 789 34 86 37 103 47
255 14 227 24 6083 11 6276 -8 103 -15 151 -27 170 -41 64 -1604 1589 -2170
2115 l-189 177 -2051 -2 c-1127 0 -2131 -4 -2230 -8z m3868 -1067 c3 -403 8
-529 21 -608 44 -276 139 -458 341 -661 120 -121 231 -199 362 -258 190 -85
306 -96 996 -96 l498 0 -4 -2922 c-4 -2944 -5 -3054 -38 -3203 -15 -67 -29
-92 -86 -158 -65 -76 -143 -137 -243 -193 l-84 -46 -2556 -5 c-2747 -6 -3108
-2 -3214 36 -146 51 -282 178 -365 341 l-51 98 0 3852 0 3852 52 101 c85 167
243 308 388 347 81 22 450 27 2226 28 l1752 2 5 -507z"/>
<path d="M3365 8594 c-150 -36 -365 -205 -433 -339 -56 -113 -78 -241 -61
-358 l12 -79 -38 -35 c-38 -34 -38 -35 -32 -96 7 -75 35 -157 116 -342 95
-218 118 -260 188 -335 105 -113 256 -171 403 -155 234 25 356 123 442 352 20
55 51 107 118 198 45 62 75 167 73 250 -10 314 -22 545 -30 571 -18 54 -41 90
-78 123 -20 17 -39 31 -43 31 -4 0 -46 34 -92 76 -90 80 -171 125 -258 143
-72 15 -214 12 -287 -5z"/>
<path d="M3020 6853 c-54 -20 -562 -269 -594 -291 -58 -40 -123 -133 -146
-211 -25 -87 -60 -439 -60 -613 l0 -38 1267 0 1266 0 -7 253 c-8 300 -16 359
-60 453 -53 113 -89 140 -351 269 -126 62 -265 129 -308 149 l-77 35 -16 -30
c-8 -17 -69 -190 -134 -385 -66 -195 -124 -363 -129 -372 -11 -19 -26 11 -77
154 l-28 81 46 99 c61 132 66 156 37 199 -30 43 -67 65 -126 72 -91 10 -184
-35 -198 -96 -6 -29 7 -74 61 -201 l27 -65 -20 -80 c-32 -121 -64 -200 -74
-184 -5 8 -32 86 -60 174 -147 465 -206 636 -217 634 -4 0 -14 -3 -22 -6z"/>
<path d="M2700 5181 l-275 -6 -46 -27 c-91 -54 -149 -152 -149 -253 1 -108 61
-195 176 -251 l59 -29 2325 0 c2342 0 2515 3 2669 36 66 14 97 40 129 108 21
47 26 70 26 141 0 71 -5 94 -26 141 -46 97 -80 111 -314 130 -141 12 -4093 20
-4574 10z"/>
<path d="M2725 4040 c-302 -7 -341 -15 -410 -85 -69 -69 -98 -185 -70 -281 14
-50 27 -69 86 -127 l69 -68 2477 4 c1612 3 2500 8 2541 15 80 13 124 46 170
130 27 50 34 74 35 120 1 100 -74 227 -153 260 -25 10 -108 16 -325 22 -363
11 -4068 19 -4420 10z"/>
<path d="M2564 2890 c-192 -9 -244 -35 -307 -154 -17 -32 -22 -58 -22 -116 0
-100 26 -157 107 -232 l61 -58 2521 0 2522 0 66 68 c90 91 103 119 103 217 0
71 -3 86 -31 135 -37 65 -102 115 -170 132 -55 13 -4595 21 -4850 8z"/>
<path d="M2615 1749 c-203 -8 -237 -14 -296 -55 -76 -52 -115 -139 -106 -240
6 -77 32 -134 95 -203 l47 -54 1468 -5 1468 -5 61 59 c80 78 108 137 108 230
0 116 -54 200 -158 246 -38 17 -81 21 -315 28 -322 11 -2099 10 -2372 -1z"/>
</g>
</svg>
